<?xml version="1.0" encoding="utf-8"?>
<!-- Generator: Adobe Illustrator 19.1.0, SVG Export Plug-In . SVG Version: 6.00 Build 0)  -->
<svg version="1.1" id="Layer_1" xmlns="http://www.w3.org/2000/svg" xmlns:xlink="http://www.w3.org/1999/xlink" x="0px" y="0px"
	 width="255.5px" height="312.3px" viewBox="0 0 255.5 312.3" style="enable-background:new 0 0 255.5 312.3;" xml:space="preserve"
	>
<style type="text/css">
	.st0{fill:#898989;}
	.st1{fill:#F0F4F7;}
	.st2{fill:#252728;}
	.st3{opacity:0.5;}
	.st4{fill:#C4C4C4;}
	.st5{fill:#FFFFFF;}
	.st6{fill:#4D6882;}
	.st7{fill:#2CC8BA;}
	.st8{fill:#B6B6B7;}
	.st9{fill:#828B93;}
</style>
<g>
	<g>
		<g>
			<path class="st0" d="M28.1,215.3h-6.4v-6.4c0-0.4-0.3-0.7-0.7-0.7c-0.4,0-0.7,0.3-0.7,0.7v6.4h-6.4c-0.4,0-0.7,0.3-0.7,0.7
				c0,0.4,0.3,0.7,0.7,0.7h6.4v6.4c0,0.4,0.3,0.7,0.7,0.7c0.4,0,0.7-0.3,0.7-0.7v-6.4h6.4c0.4,0,0.7-0.3,0.7-0.7
				C28.8,215.6,28.5,215.3,28.1,215.3z"/>
		</g>
		<g>
			<path class="st0" d="M163.7,157.6h-6.4v-6.4c0-0.4-0.3-0.7-0.7-0.7c-0.4,0-0.7,0.3-0.7,0.7v6.4h-6.4c-0.4,0-0.7,0.3-0.7,0.7
				c0,0.4,0.3,0.7,0.7,0.7h6.4v6.4c0,0.4,0.3,0.7,0.7,0.7c0.4,0,0.7-0.3,0.7-0.7v-6.4h6.4c0.4,0,0.7-0.3,0.7-0.7
				C164.4,157.9,164.1,157.6,163.7,157.6z"/>
		</g>
		<g>
			<path class="st0" d="M52.9,179.4h-2.2v-2.2c0-0.1-0.1-0.3-0.3-0.3s-0.3,0.1-0.3,0.3v2.2H48c-0.1,0-0.3,0.1-0.3,0.3
				c0,0.1,0.1,0.3,0.3,0.3h2.2v2.2c0,0.1,0.1,0.3,0.3,0.3s0.3-0.1,0.3-0.3v-2.2h2.2c0.1,0,0.3-0.1,0.3-0.3
				C53.1,179.5,53,179.4,52.9,179.4z"/>
		</g>
		<g>
			<path class="st0" d="M210.7,178.7c-0.3-0.3-0.7-0.3-1,0l-4.4,4.4l-4.4-4.4c-0.3-0.3-0.7-0.3-1,0c-0.3,0.3-0.3,0.7,0,1l4.4,4.4
				l-4.4,4.4c-0.3,0.3-0.3,0.7,0,1c0.1,0.1,0.3,0.2,0.5,0.2s0.4-0.1,0.5-0.2l4.4-4.4l4.4,4.4c0.1,0.1,0.3,0.2,0.5,0.2
				s0.4-0.1,0.5-0.2c0.3-0.3,0.3-0.7,0-1l-4.4-4.4l4.4-4.4C210.9,179.4,210.9,179,210.7,178.7z"/>
		</g>
		<g>
			<path class="st0" d="M7.8,202.8h-2v-2c0-0.1-0.1-0.2-0.2-0.2c-0.1,0-0.2,0.1-0.2,0.2v2h-2c-0.1,0-0.2,0.1-0.2,0.2
				c0,0.1,0.1,0.2,0.2,0.2h2v2c0,0.1,0.1,0.2,0.2,0.2c0.1,0,0.2-0.1,0.2-0.2v-2h2c0.1,0,0.2-0.1,0.2-0.2
				C8,202.9,7.9,202.8,7.8,202.8z"/>
		</g>
		<g>
			<path class="st0" d="M40.2,195.5c-1.7,0-3.1,1.4-3.1,3.1s1.4,3.1,3.1,3.1c1.7,0,3.1-1.4,3.1-3.1S41.9,195.5,40.2,195.5z
				 M40.2,200.3c-0.9,0-1.7-0.7-1.7-1.7s0.7-1.7,1.7-1.7c0.9,0,1.7,0.7,1.7,1.7S41.1,200.3,40.2,200.3z"/>
		</g>
		<g>
			<path class="st0" d="M37,221.7c-1.7,0-3.1,1.4-3.1,3.1c0,1.7,1.4,3.1,3.1,3.1s3.1-1.4,3.1-3.1C40.2,223.1,38.8,221.7,37,221.7z
				 M37,226.5c-0.9,0-1.7-0.7-1.7-1.7s0.7-1.7,1.7-1.7s1.7,0.7,1.7,1.7S38,226.5,37,226.5z"/>
		</g>
		<g>
			<path class="st0" d="M23.5,192.4c1,0,1.8-0.8,1.8-1.8c0-1-0.8-1.8-1.8-1.8c-1,0-1.8,0.8-1.8,1.8
				C21.8,191.6,22.6,192.4,23.5,192.4z M23.5,189.7c0.5,0,0.9,0.4,0.9,0.9c0,0.5-0.4,0.9-0.9,0.9c-0.5,0-0.9-0.4-0.9-0.9
				C22.6,190.1,23,189.7,23.5,189.7z"/>
		</g>
		<g>
			<path class="st0" d="M63.8,162.5c-1.7,0-3.1,1.4-3.1,3.1c0,1.7,1.4,3.1,3.1,3.1s3.1-1.4,3.1-3.1
				C66.9,163.9,65.5,162.5,63.8,162.5z M63.8,167.3c-0.9,0-1.7-0.7-1.7-1.7s0.7-1.7,1.7-1.7c0.9,0,1.7,0.7,1.7,1.7
				S64.7,167.3,63.8,167.3z"/>
		</g>
		<g>
			<path class="st0" d="M225.3,211.5c-1.7,0-3.1,1.4-3.1,3.1c0,1.7,1.4,3.1,3.1,3.1s3.1-1.4,3.1-3.1
				C228.5,212.9,227.1,211.5,225.3,211.5z M225.3,216.3c-0.9,0-1.7-0.7-1.7-1.7s0.7-1.7,1.7-1.7s1.7,0.7,1.7,1.7
				S226.3,216.3,225.3,216.3z"/>
		</g>
		<g>
			<path class="st0" d="M216.4,162.5c-1.7,0-3.1,1.4-3.1,3.1c0,1.7,1.4,3.1,3.1,3.1c1.7,0,3.1-1.4,3.1-3.1
				C219.6,163.9,218.1,162.5,216.4,162.5z M216.4,167.3c-0.9,0-1.7-0.7-1.7-1.7s0.7-1.7,1.7-1.7c0.9,0,1.7,0.7,1.7,1.7
				S217.3,167.3,216.4,167.3z"/>
		</g>
		<g>
			<ellipse class="st0" cx="94.9" cy="153.8" rx="2.4" ry="2.1"/>
		</g>
		<g>
			<circle class="st0" cx="188.2" cy="159.2" r="1.7"/>
		</g>
		<g>
			<circle class="st0" cx="140.1" cy="148.1" r="1.7"/>
		</g>
		<g>
			<path class="st0" d="M249.6,188.4l1.6-1.6c0.1-0.1,0.1-0.3,0-0.4c-0.1-0.1-0.3-0.1-0.4,0l-1.6,1.6l-1.6-1.6
				c-0.1-0.1-0.3-0.1-0.4,0c-0.1,0.1-0.1,0.3,0,0.4l1.6,1.6l-1.6,1.6c-0.1,0.1-0.1,0.3,0,0.4c0.1,0.1,0.1,0.1,0.2,0.1s0.1,0,0.2-0.1
				l1.6-1.6l1.6,1.6c0.1,0.1,0.1,0.1,0.2,0.1s0.1,0,0.2-0.1c0.1-0.1,0.1-0.3,0-0.4L249.6,188.4z"/>
		</g>
		<g>
			<path class="st0" d="M226.9,185.7c-1.7,0-3.1,1.4-3.1,3.1c0,1.7,1.4,3.1,3.1,3.1c1.7,0,3.1-1.4,3.1-3.1
				C230.1,187.1,228.7,185.7,226.9,185.7z"/>
		</g>
	</g>
	<g>
		<path class="st1" d="M194.6,191h-78c-0.7,0-1.3-0.6-1.3-1.3c0-1.5,0-4.4,0-4.4c0-1.8-1.4-3.2-3.2-3.2H65.8c-1.8,0-3.2,1.4-3.2,3.2
			c0,0,0,2.9,0,4.4c0,0.7-0.6,1.3-1.3,1.3h-5c-2.3,0-4.1,1.8-4.1,4.1v108.6c0,2.1,1.7,3.8,3.8,3.8H195c2.1,0,3.8-1.7,3.8-3.8V195.1
			C198.8,192.9,196.9,191,194.6,191z"/>
		<path class="st2" d="M195,308.2H55.9c-2.5,0-4.5-2-4.5-4.5V195.1c0-2.7,2.2-4.8,4.8-4.8h5c0.1,0,0.3-0.1,0.4-0.2
			c0.1-0.1,0.2-0.2,0.2-0.4l0-4.4c0-2.2,1.8-4,4-4h46.4c2.2,0,4,1.8,4,4l0,4.4c0,0.1,0.1,0.3,0.2,0.4c0.1,0.1,0.2,0.2,0.4,0.2h78
			c2.7,0,4.8,2.2,4.8,4.8v108.6C199.5,306.2,197.5,308.2,195,308.2z M56.2,191.8c-1.9,0-3.4,1.5-3.4,3.4v108.6c0,1.7,1.4,3,3,3H195
			c1.7,0,3-1.4,3-3V195.1c0-1.9-1.5-3.4-3.4-3.4h-78c-0.5,0-1.1-0.2-1.4-0.6c-0.4-0.4-0.6-0.9-0.6-1.4l0-4.4c0-1.4-1.1-2.5-2.5-2.5
			H65.8c-1.4,0-2.5,1.1-2.5,2.5l0,4.4c0,0.5-0.2,1-0.6,1.4c-0.4,0.4-0.9,0.6-1.4,0.6H56.2z"/>
	</g>
	<g class="st3">
		<path class="st4" d="M63.3,185.3V215h120.7v-32.1H65.7C64.4,182.9,63.3,184,63.3,185.3z"/>
	</g>
	<g>
		<g>
			<path class="st5" d="M69.8,285.2V164.8c0-1.7,1.4-3.1,3.1-3.1h108c1.7,0,3.1,1.4,3.1,3.1v120.4c0,1.7-1.4,3.1-3.1,3.1h-108
				C71.2,288.3,69.8,286.9,69.8,285.2z"/>
			<path class="st6" d="M180.9,289.1h-108c-2.1,0-3.9-1.7-3.9-3.9V164.8c0-2.1,1.7-3.9,3.9-3.9h108c2.1,0,3.9,1.7,3.9,3.9v120.4
				C184.7,287.4,183,289.1,180.9,289.1z M72.9,162.5c-1.3,0-2.3,1-2.3,2.3v120.4c0,1.3,1,2.3,2.3,2.3h108c1.3,0,2.3-1,2.3-2.3V164.8
				c0-1.3-1-2.3-2.3-2.3H72.9z"/>
		</g>
		<g>
			<g>
				<path class="st7" d="M163.7,183.1H90.1c-0.4,0-0.8-0.4-0.8-0.8s0.4-0.8,0.8-0.8h73.6c0.4,0,0.8,0.4,0.8,0.8
					S164.1,183.1,163.7,183.1z"/>
			</g>
			<g>
				<path class="st6" d="M132.4,193.5H90.1c-0.4,0-0.8-0.4-0.8-0.8s0.4-0.8,0.8-0.8h42.3c0.4,0,0.8,0.4,0.8,0.8
					S132.8,193.5,132.4,193.5z"/>
			</g>
			<g>
				<path class="st6" d="M163.7,203.7H90.1c-0.4,0-0.8-0.4-0.8-0.8s0.4-0.8,0.8-0.8h73.6c0.4,0,0.8,0.4,0.8,0.8
					S164.1,203.7,163.7,203.7z"/>
			</g>
			<g>
				<path class="st6" d="M163.7,213.9H90.1c-0.4,0-0.8-0.4-0.8-0.8s0.4-0.8,0.8-0.8h73.6c0.4,0,0.8,0.4,0.8,0.8
					S164.1,213.9,163.7,213.9z"/>
			</g>
		</g>
		<g>
			<g>
				<path class="st6" d="M163.7,234.5H90.1c-0.4,0-0.8-0.4-0.8-0.8s0.4-0.8,0.8-0.8h73.6c0.4,0,0.8,0.4,0.8,0.8
					S164.1,234.5,163.7,234.5z"/>
			</g>
			<g>
				<path class="st6" d="M163.7,244.9H90.1c-0.4,0-0.8-0.4-0.8-0.8s0.4-0.8,0.8-0.8h73.6c0.4,0,0.8,0.4,0.8,0.8
					S164.1,244.9,163.7,244.9z"/>
			</g>
			<g>
				<path class="st6" d="M163.7,255H90.1c-0.4,0-0.8-0.4-0.8-0.8s0.4-0.8,0.8-0.8h73.6c0.4,0,0.8,0.4,0.8,0.8S164.1,255,163.7,255z"
					/>
			</g>
			<g>
				<path class="st6" d="M163.7,265.2H90.1c-0.4,0-0.8-0.4-0.8-0.8s0.4-0.8,0.8-0.8h73.6c0.4,0,0.8,0.4,0.8,0.8
					S164.1,265.2,163.7,265.2z"/>
			</g>
		</g>
	</g>
	<g>
		<path class="st1" d="M47.7,215.3h155.5c2.6,0,4.6,2.1,4.4,4.6l-8.5,84.3c-0.2,1.9-1.8,3.4-3.7,3.4H55.5c-1.9,0-3.5-1.5-3.7-3.4
			l-8.5-84.3C43.1,217.4,45.1,215.3,47.7,215.3z"/>
		<path class="st2" d="M195.4,308.3H55.5c-2.3,0-4.2-1.7-4.5-4l-8.5-84.3c-0.1-1.4,0.3-2.7,1.2-3.7c1-1.1,2.4-1.7,3.9-1.7h155.5
			c1.5,0,2.9,0.6,3.9,1.7c0.9,1,1.4,2.3,1.2,3.7l-8.5,84.3C199.6,306.5,197.7,308.3,195.4,308.3z M47.7,216c-1.1,0-2.1,0.4-2.8,1.2
			c-0.6,0.7-1,1.6-0.9,2.6l8.5,84.3c0.2,1.5,1.5,2.7,3,2.7h139.8c1.6,0,2.9-1.2,3-2.7l8.5-84.3c0.1-0.9-0.2-1.8-0.9-2.6
			c-0.7-0.8-1.7-1.2-2.8-1.2H47.7z"/>
	</g>
	<g>
		<path class="st2" d="M231.5,309.2H17.8c-0.6,0-1.1-0.5-1.1-1.1s0.5-1.1,1.1-1.1h213.7c0.6,0,1.1,0.5,1.1,1.1
			S232.1,309.2,231.5,309.2z"/>
	</g>
	<g>
		<g>
			<path class="st5" d="M132.6,139.4V73.9c0-0.9,0.7-1.7,1.7-1.7H193c0.9,0,1.7,0.7,1.7,1.7v65.5c0,0.9-0.7,1.7-1.7,1.7h-58.7
				C133.4,141.1,132.6,140.3,132.6,139.4z"/>
			<path class="st6" d="M193,141.8h-58.7c-1.3,0-2.4-1.1-2.4-2.4V73.9c0-1.3,1.1-2.4,2.4-2.4H193c1.3,0,2.4,1.1,2.4,2.4v65.5
				C195.4,140.7,194.3,141.8,193,141.8z M134.3,73c-0.5,0-0.9,0.4-0.9,0.9v65.5c0,0.5,0.4,0.9,0.9,0.9H193c0.5,0,0.9-0.4,0.9-0.9
				V73.9c0-0.5-0.4-0.9-0.9-0.9H134.3z"/>
		</g>
		<g>
			<g>
				<path class="st7" d="M183.6,84h-40c-0.3,0-0.6-0.3-0.6-0.6s0.3-0.6,0.6-0.6h40c0.3,0,0.6,0.3,0.6,0.6S183.9,84,183.6,84z"/>
			</g>
			<g>
				<path class="st6" d="M166.6,89.6h-23c-0.3,0-0.6-0.3-0.6-0.6s0.3-0.6,0.6-0.6h23c0.3,0,0.6,0.3,0.6,0.6S166.9,89.6,166.6,89.6z"
					/>
			</g>
			<g>
				<path class="st6" d="M183.6,95.2h-40c-0.3,0-0.6-0.3-0.6-0.6s0.3-0.6,0.6-0.6h40c0.3,0,0.6,0.3,0.6,0.6S183.9,95.2,183.6,95.2z"
					/>
			</g>
			<g>
				<path class="st6" d="M183.6,100.7h-40c-0.3,0-0.6-0.3-0.6-0.6s0.3-0.6,0.6-0.6h40c0.3,0,0.6,0.3,0.6,0.6
					S183.9,100.7,183.6,100.7z"/>
			</g>
		</g>
		<g>
			<g>
				<path class="st6" d="M183.6,111.9h-40c-0.3,0-0.6-0.3-0.6-0.6s0.3-0.6,0.6-0.6h40c0.3,0,0.6,0.3,0.6,0.6
					S183.9,111.9,183.6,111.9z"/>
			</g>
			<g>
				<path class="st6" d="M183.6,117.6h-40c-0.3,0-0.6-0.3-0.6-0.6s0.3-0.6,0.6-0.6h40c0.3,0,0.6,0.3,0.6,0.6
					S183.9,117.6,183.6,117.6z"/>
			</g>
			<g>
				<path class="st6" d="M183.6,123.1h-40c-0.3,0-0.6-0.3-0.6-0.6s0.3-0.6,0.6-0.6h40c0.3,0,0.6,0.3,0.6,0.6
					S183.9,123.1,183.6,123.1z"/>
			</g>
			<g>
				<path class="st6" d="M183.6,128.6h-40c-0.3,0-0.6-0.3-0.6-0.6c0-0.3,0.3-0.6,0.6-0.6h40c0.3,0,0.6,0.3,0.6,0.6
					C184.2,128.4,183.9,128.6,183.6,128.6z"/>
			</g>
		</g>
	</g>
	<g>
		<path class="st8" d="M159.5,75.9c-0.4,0-0.7-0.3-0.7-0.7V60.7c0-0.4,0.3-0.7,0.7-0.7s0.7,0.3,0.7,0.7v14.5
			C160.2,75.6,159.9,75.9,159.5,75.9z"/>
	</g>
	<g>
		<path class="st8" d="M167.6,75.9c-0.4,0-0.7-0.3-0.7-0.7V33.9c0-0.4,0.3-0.7,0.7-0.7s0.7,0.3,0.7,0.7v41.3
			C168.4,75.6,168,75.9,167.6,75.9z"/>
	</g>
	<g>
		<g>
			<path class="st5" d="M56,94.7V40.7c0-0.8,0.6-1.4,1.4-1.4h48.5c0.8,0,1.4,0.6,1.4,1.4v54.1c0,0.8-0.6,1.4-1.4,1.4H57.4
				C56.6,96.1,56,95.5,56,94.7z"/>
			<path class="st9" d="M105.8,96.7H57.4c-1.1,0-2-0.9-2-2V40.7c0-1.1,0.9-2,2-2h48.5c1.1,0,2,0.9,2,2v54.1
				C107.8,95.8,106.9,96.7,105.8,96.7z M57.4,39.9c-0.4,0-0.8,0.3-0.8,0.8v54.1c0,0.4,0.3,0.8,0.8,0.8h48.5c0.4,0,0.8-0.3,0.8-0.8
				V40.7c0-0.4-0.3-0.8-0.8-0.8H57.4z"/>
		</g>
		<g class="st3">
			<g>
				<path class="st7" d="M98.1,49h-33c-0.3,0-0.5-0.2-0.5-0.5s0.2-0.5,0.5-0.5h33c0.3,0,0.5,0.2,0.5,0.5S98.4,49,98.1,49z"/>
			</g>
			<g>
				<path class="st6" d="M84.1,53.7h-19c-0.3,0-0.5-0.2-0.5-0.5s0.2-0.5,0.5-0.5h19c0.3,0,0.5,0.2,0.5,0.5S84.3,53.7,84.1,53.7z"/>
			</g>
			<g>
				<path class="st6" d="M98.1,58.3h-33c-0.3,0-0.5-0.2-0.5-0.5s0.2-0.5,0.5-0.5h33c0.3,0,0.5,0.2,0.5,0.5S98.4,58.3,98.1,58.3z"/>
			</g>
			<g>
				<path class="st6" d="M98.1,62.8h-33c-0.3,0-0.5-0.2-0.5-0.5s0.2-0.5,0.5-0.5h33c0.3,0,0.5,0.2,0.5,0.5S98.4,62.8,98.1,62.8z"/>
			</g>
		</g>
		<g class="st3">
			<g>
				<path class="st6" d="M98.1,72.1h-33c-0.3,0-0.5-0.2-0.5-0.5s0.2-0.5,0.5-0.5h33c0.3,0,0.5,0.2,0.5,0.5S98.4,72.1,98.1,72.1z"/>
			</g>
			<g>
				<path class="st6" d="M98.1,76.7h-33c-0.3,0-0.5-0.2-0.5-0.5s0.2-0.5,0.5-0.5h33c0.3,0,0.5,0.2,0.5,0.5S98.4,76.7,98.1,76.7z"/>
			</g>
			<g>
				<path class="st6" d="M98.1,81.3h-33c-0.3,0-0.5-0.2-0.5-0.5s0.2-0.5,0.5-0.5h33c0.3,0,0.5,0.2,0.5,0.5S98.4,81.3,98.1,81.3z"/>
			</g>
			<g>
				<path class="st6" d="M98.1,85.9h-33c-0.3,0-0.5-0.2-0.5-0.5s0.2-0.5,0.5-0.5h33c0.3,0,0.5,0.2,0.5,0.5S98.4,85.9,98.1,85.9z"/>
			</g>
		</g>
	</g>
	<g>
		<path class="st8" d="M78.2,42.4c-0.3,0-0.6-0.3-0.6-0.6v-12c0-0.3,0.3-0.6,0.6-0.6s0.6,0.3,0.6,0.6v12
			C78.8,42.1,78.5,42.4,78.2,42.4z"/>
	</g>
	<g>
		<path class="st8" d="M84.9,42.4c-0.3,0-0.6-0.3-0.6-0.6V7.7c0-0.3,0.3-0.6,0.6-0.6s0.6,0.3,0.6,0.6v34.1
			C85.5,42.1,85.3,42.4,84.9,42.4z"/>
	</g>
	<g>
		<path class="st8" d="M78.2,135c-0.4,0-0.7-0.3-0.7-0.7v-22.4c0-0.4,0.3-0.7,0.7-0.7s0.7,0.3,0.7,0.7v22.4
			C78.9,134.7,78.6,135,78.2,135z"/>
	</g>
	<g>
		<path class="st8" d="M132.6,41.7c-0.4,0-0.7-0.3-0.7-0.7V3.8c0-0.4,0.3-0.7,0.7-0.7s0.7,0.3,0.7,0.7V41
			C133.3,41.4,133,41.7,132.6,41.7z"/>
	</g>
</g>
</svg>
